<svg width="161" height="181" viewBox="0 0 161 181" fill="none" xmlns="http://www.w3.org/2000/svg">
<mask id="path-1-inside-1_122_15851" fill="white">
<path d="M68.4986 1.33984C65.4319 2.00651 60.6319 3.73985 57.8319 5.20651C55.0319 6.80651 51.5652 8.00652 50.2319 8.00652C46.2319 8.00652 31.8319 19.6065 26.4986 26.9398C20.2319 35.8732 13.4319 52.6732 13.9652 58.0065C14.2319 60.1399 14.7652 64.4065 15.2986 67.3399C16.0986 72.4065 15.6986 73.0732 8.09857 81.8732C-1.90143 93.2065 -2.30143 96.2732 5.0319 103.34C8.89857 106.807 10.0986 108.94 9.69857 111.207C9.29857 112.807 10.8986 118.007 13.0319 122.807C15.1652 127.473 17.4319 133.74 17.9652 136.673C19.9652 148.54 24.8986 151.473 40.3652 150.14C49.2986 149.34 51.4319 149.607 53.4319 151.473C54.8986 152.673 55.9652 154.407 55.9652 155.34C55.9652 157.873 59.6986 164.14 65.6986 172.007L71.4319 179.34L98.7652 179.473C113.699 179.607 132.099 179.873 139.565 180.007C161.565 180.273 165.965 175.74 155.165 163.74C152.765 161.073 149.565 156.54 147.965 153.74C146.499 150.94 144.632 147.74 143.965 146.673C143.299 145.607 140.765 140.54 138.499 135.473C132.765 123.073 133.432 113.34 140.632 99.4732C152.365 77.0732 153.699 53.2065 144.232 32.2732C140.632 24.4065 129.432 12.1399 122.499 8.53986C107.565 1.07319 85.2986 -1.99349 68.4986 1.33984ZM103.432 5.60652C108.099 6.40652 111.565 7.60651 111.165 8.27318C110.765 8.80651 111.832 9.33984 113.565 9.33984C117.032 9.33984 128.899 15.7399 132.232 19.4732C134.365 21.8732 133.965 22.0065 119.565 21.6065L104.632 21.2065L100.099 25.8732L95.4319 30.6732H61.6986C43.1652 30.6732 27.9652 30.1399 27.9652 29.4732C27.9652 26.1399 32.3652 24.9399 41.9652 25.7399C51.1652 26.4065 51.9652 26.2732 51.9652 23.8732C51.9652 22.2732 51.0319 21.3399 49.2986 21.3399C47.8319 21.3399 46.6319 21.7398 46.6319 22.2732C46.6319 22.9398 43.1652 23.4732 39.0319 23.6065L31.5652 23.8732L34.3652 20.9398C37.1652 18.2732 38.4986 18.0065 60.6319 18.0065C73.8319 18.0065 84.0986 18.5398 84.3652 19.2065C85.0319 21.2065 89.2986 18.9399 89.2986 16.6732C89.2986 14.1399 85.0319 12.2732 84.2319 14.4065C83.8319 15.6065 77.6986 16.0065 62.2319 15.8732H40.6319L45.9652 13.3398C49.0319 12.0065 52.8986 11.3399 55.0319 11.6065C57.6986 12.1399 58.6319 11.7398 58.6319 10.2732C58.6319 8.27318 60.2319 7.87319 75.2986 4.80652C81.0319 3.73985 95.4319 4.13985 103.432 5.60652ZM137.565 26.2732C141.432 29.7398 140.365 30.6732 132.232 30.6732C125.699 30.6732 123.965 31.2065 121.299 34.0065L118.232 37.3399H85.0319C63.8319 37.3399 51.9652 37.8732 51.9652 38.6732C51.9652 39.4732 63.8319 40.0065 85.0319 40.0065H118.232L121.299 36.6732C124.099 33.7399 125.565 33.3399 133.565 33.3399C138.499 33.3399 142.632 33.6065 142.632 33.8732C142.632 34.1399 143.032 35.3399 143.432 36.5399C144.099 38.1399 143.032 38.4065 137.565 38.1398C133.832 37.8732 130.099 37.2065 129.299 36.6732C127.165 35.3399 123.965 36.9398 123.965 39.2065C123.965 41.4732 127.565 43.0732 128.632 41.3399C129.165 40.5399 132.899 40.0065 137.165 40.0065C143.832 40.0065 145.032 40.4065 145.699 42.6732C146.365 45.3399 145.699 45.3399 96.0986 45.3399H45.8319L39.9652 51.3399C36.7652 54.6732 33.4319 57.3399 32.4986 57.3399C31.6986 57.3399 30.2319 58.1399 29.4319 59.2065C28.2319 60.5399 28.3652 61.3399 29.8319 62.6732C32.0986 64.4065 34.6319 63.4732 34.6319 60.8065C34.6319 59.8732 37.5652 56.5399 41.1652 53.4732L47.8319 48.0065L97.5652 48.2732C143.699 48.6732 147.299 48.8065 147.699 50.9398C147.965 52.5398 147.299 53.3399 145.699 53.4732C143.565 53.6065 143.432 53.7399 145.699 54.2732C147.565 54.8065 147.965 56.4065 147.965 63.0732C147.965 71.6065 145.965 81.3399 144.232 81.3399C143.565 81.3399 142.499 80.6732 141.699 79.8732C139.699 77.8732 135.965 79.3399 135.965 82.1399C135.965 83.8732 136.765 84.1399 139.965 83.4732C142.365 83.0732 143.965 83.3399 143.965 84.1399C143.965 85.6065 138.499 98.6732 137.832 98.6732C136.232 98.6732 123.965 84.1399 123.965 82.2732C123.965 80.5399 123.165 80.0065 121.032 80.2732C117.032 80.8065 116.632 83.4732 120.232 85.6065C121.965 86.5399 126.099 90.2732 129.299 93.7399L135.165 100.14L133.299 106.407C132.365 109.873 131.299 115.473 130.899 118.94C130.365 124.94 130.099 125.34 126.499 125.34H122.632V112.273V99.2065L117.965 94.6732C115.432 92.1399 113.299 89.0732 113.299 87.7399C113.299 86.2732 112.365 85.3399 110.765 85.3399C105.699 85.3399 106.499 88.1399 113.165 94.1399L119.965 100.273V138.14V176.007H116.499H113.032L113.565 147.34C113.699 131.607 113.565 118.673 113.032 118.673C112.365 118.673 111.565 118.807 111.032 118.94C110.632 119.207 110.365 132.14 110.499 147.607C110.899 175.74 110.765 176.007 107.965 176.007C105.165 176.007 105.165 175.873 105.432 141.873L105.565 107.74L99.5652 101.473C96.2319 98.1399 93.2986 94.1399 93.0319 92.6732C92.4986 89.3399 87.5652 89.0732 86.8986 92.2732C86.6319 93.8732 87.5652 95.0732 89.6986 95.8732C91.4319 96.5399 95.2986 99.8732 98.2319 103.34L103.565 109.607V142.807V176.007H93.1652H82.6319V165.607V155.207L73.2986 145.073C64.8986 136.007 63.9652 134.407 63.9652 129.473C63.9652 126.54 64.6319 123.74 65.2986 123.34C67.4319 122.007 66.8986 117.34 64.4986 116.407C61.4319 115.207 58.3652 119.607 59.9652 122.807C60.7652 124.14 61.2986 127.74 61.2986 130.94C61.2986 136.14 61.9652 137.34 70.4986 146.007L79.6986 155.34L80.2319 165.74L80.6319 176.007H76.3652C73.0319 176.007 71.9652 175.473 71.9652 173.607C71.9652 172.14 70.7652 170.007 69.1652 168.54C65.2986 165.073 60.3652 156.273 59.2986 150.94C58.0986 144.94 55.0319 144.14 42.2319 146.14C35.6986 147.207 30.4986 147.34 28.4986 146.673C23.8319 144.807 20.7652 139.34 21.6986 134.14C22.2319 130.54 21.8319 128.94 19.1652 126.54C17.2986 124.807 16.2319 122.673 16.6319 121.473C17.0319 120.407 16.0986 118.273 14.4986 116.54C12.2319 114.14 11.9652 113.073 13.1652 110.94C15.6986 106.14 14.7652 104.14 8.6319 101.473C0.365235 97.7399 0.631902 94.5399 9.96523 85.3399C13.9652 81.3399 18.2319 76.1399 19.2986 73.7399C21.1652 69.8732 21.1652 68.9399 19.2986 65.4732C16.7652 60.4065 16.7652 54.6732 19.1652 49.0732C20.2319 46.6732 22.2319 42.1399 23.4319 38.9398L25.8319 33.3399H60.6319H95.5652L100.765 28.6732L105.965 24.1398L120.499 24.0065C132.232 24.0065 135.565 24.4065 137.565 26.2732ZM131.965 129.607C131.965 132.807 140.765 151.473 145.699 158.673C148.365 162.673 152.365 167.207 154.632 168.673C156.765 170.14 158.632 172.407 158.632 173.607C158.632 175.74 156.899 176.007 140.632 176.007H122.632V152.007V128.007H127.299C130.099 128.007 131.965 128.673 131.965 129.607Z"/>
</mask>
<path d="M68.4986 1.33984C65.4319 2.00651 60.6319 3.73985 57.8319 5.20651C55.0319 6.80651 51.5652 8.00652 50.2319 8.00652C46.2319 8.00652 31.8319 19.6065 26.4986 26.9398C20.2319 35.8732 13.4319 52.6732 13.9652 58.0065C14.2319 60.1399 14.7652 64.4065 15.2986 67.3399C16.0986 72.4065 15.6986 73.0732 8.09857 81.8732C-1.90143 93.2065 -2.30143 96.2732 5.0319 103.34C8.89857 106.807 10.0986 108.94 9.69857 111.207C9.29857 112.807 10.8986 118.007 13.0319 122.807C15.1652 127.473 17.4319 133.74 17.9652 136.673C19.9652 148.54 24.8986 151.473 40.3652 150.14C49.2986 149.34 51.4319 149.607 53.4319 151.473C54.8986 152.673 55.9652 154.407 55.9652 155.34C55.9652 157.873 59.6986 164.14 65.6986 172.007L71.4319 179.34L98.7652 179.473C113.699 179.607 132.099 179.873 139.565 180.007C161.565 180.273 165.965 175.74 155.165 163.74C152.765 161.073 149.565 156.54 147.965 153.74C146.499 150.94 144.632 147.74 143.965 146.673C143.299 145.607 140.765 140.54 138.499 135.473C132.765 123.073 133.432 113.34 140.632 99.4732C152.365 77.0732 153.699 53.2065 144.232 32.2732C140.632 24.4065 129.432 12.1399 122.499 8.53986C107.565 1.07319 85.2986 -1.99349 68.4986 1.33984ZM103.432 5.60652C108.099 6.40652 111.565 7.60651 111.165 8.27318C110.765 8.80651 111.832 9.33984 113.565 9.33984C117.032 9.33984 128.899 15.7399 132.232 19.4732C134.365 21.8732 133.965 22.0065 119.565 21.6065L104.632 21.2065L100.099 25.8732L95.4319 30.6732H61.6986C43.1652 30.6732 27.9652 30.1399 27.9652 29.4732C27.9652 26.1399 32.3652 24.9399 41.9652 25.7399C51.1652 26.4065 51.9652 26.2732 51.9652 23.8732C51.9652 22.2732 51.0319 21.3399 49.2986 21.3399C47.8319 21.3399 46.6319 21.7398 46.6319 22.2732C46.6319 22.9398 43.1652 23.4732 39.0319 23.6065L31.5652 23.8732L34.3652 20.9398C37.1652 18.2732 38.4986 18.0065 60.6319 18.0065C73.8319 18.0065 84.0986 18.5398 84.3652 19.2065C85.0319 21.2065 89.2986 18.9399 89.2986 16.6732C89.2986 14.1399 85.0319 12.2732 84.2319 14.4065C83.8319 15.6065 77.6986 16.0065 62.2319 15.8732H40.6319L45.9652 13.3398C49.0319 12.0065 52.8986 11.3399 55.0319 11.6065C57.6986 12.1399 58.6319 11.7398 58.6319 10.2732C58.6319 8.27318 60.2319 7.87319 75.2986 4.80652C81.0319 3.73985 95.4319 4.13985 103.432 5.60652ZM137.565 26.2732C141.432 29.7398 140.365 30.6732 132.232 30.6732C125.699 30.6732 123.965 31.2065 121.299 34.0065L118.232 37.3399H85.0319C63.8319 37.3399 51.9652 37.8732 51.9652 38.6732C51.9652 39.4732 63.8319 40.0065 85.0319 40.0065H118.232L121.299 36.6732C124.099 33.7399 125.565 33.3399 133.565 33.3399C138.499 33.3399 142.632 33.6065 142.632 33.8732C142.632 34.1399 143.032 35.3399 143.432 36.5399C144.099 38.1399 143.032 38.4065 137.565 38.1398C133.832 37.8732 130.099 37.2065 129.299 36.6732C127.165 35.3399 123.965 36.9398 123.965 39.2065C123.965 41.4732 127.565 43.0732 128.632 41.3399C129.165 40.5399 132.899 40.0065 137.165 40.0065C143.832 40.0065 145.032 40.4065 145.699 42.6732C146.365 45.3399 145.699 45.3399 96.0986 45.3399H45.8319L39.9652 51.3399C36.7652 54.6732 33.4319 57.3399 32.4986 57.3399C31.6986 57.3399 30.2319 58.1399 29.4319 59.2065C28.2319 60.5399 28.3652 61.3399 29.8319 62.6732C32.0986 64.4065 34.6319 63.4732 34.6319 60.8065C34.6319 59.8732 37.5652 56.5399 41.1652 53.4732L47.8319 48.0065L97.5652 48.2732C143.699 48.6732 147.299 48.8065 147.699 50.9398C147.965 52.5398 147.299 53.3399 145.699 53.4732C143.565 53.6065 143.432 53.7399 145.699 54.2732C147.565 54.8065 147.965 56.4065 147.965 63.0732C147.965 71.6065 145.965 81.3399 144.232 81.3399C143.565 81.3399 142.499 80.6732 141.699 79.8732C139.699 77.8732 135.965 79.3399 135.965 82.1399C135.965 83.8732 136.765 84.1399 139.965 83.4732C142.365 83.0732 143.965 83.3399 143.965 84.1399C143.965 85.6065 138.499 98.6732 137.832 98.6732C136.232 98.6732 123.965 84.1399 123.965 82.2732C123.965 80.5399 123.165 80.0065 121.032 80.2732C117.032 80.8065 116.632 83.4732 120.232 85.6065C121.965 86.5399 126.099 90.2732 129.299 93.7399L135.165 100.14L133.299 106.407C132.365 109.873 131.299 115.473 130.899 118.94C130.365 124.94 130.099 125.34 126.499 125.34H122.632V112.273V99.2065L117.965 94.6732C115.432 92.1399 113.299 89.0732 113.299 87.7399C113.299 86.2732 112.365 85.3399 110.765 85.3399C105.699 85.3399 106.499 88.1399 113.165 94.1399L119.965 100.273V138.14V176.007H116.499H113.032L113.565 147.34C113.699 131.607 113.565 118.673 113.032 118.673C112.365 118.673 111.565 118.807 111.032 118.94C110.632 119.207 110.365 132.14 110.499 147.607C110.899 175.74 110.765 176.007 107.965 176.007C105.165 176.007 105.165 175.873 105.432 141.873L105.565 107.74L99.5652 101.473C96.2319 98.1399 93.2986 94.1399 93.0319 92.6732C92.4986 89.3399 87.5652 89.0732 86.8986 92.2732C86.6319 93.8732 87.5652 95.0732 89.6986 95.8732C91.4319 96.5399 95.2986 99.8732 98.2319 103.34L103.565 109.607V142.807V176.007H93.1652H82.6319V165.607V155.207L73.2986 145.073C64.8986 136.007 63.9652 134.407 63.9652 129.473C63.9652 126.54 64.6319 123.74 65.2986 123.34C67.4319 122.007 66.8986 117.34 64.4986 116.407C61.4319 115.207 58.3652 119.607 59.9652 122.807C60.7652 124.14 61.2986 127.74 61.2986 130.94C61.2986 136.14 61.9652 137.34 70.4986 146.007L79.6986 155.34L80.2319 165.74L80.6319 176.007H76.3652C73.0319 176.007 71.9652 175.473 71.9652 173.607C71.9652 172.14 70.7652 170.007 69.1652 168.54C65.2986 165.073 60.3652 156.273 59.2986 150.94C58.0986 144.94 55.0319 144.14 42.2319 146.14C35.6986 147.207 30.4986 147.34 28.4986 146.673C23.8319 144.807 20.7652 139.34 21.6986 134.14C22.2319 130.54 21.8319 128.94 19.1652 126.54C17.2986 124.807 16.2319 122.673 16.6319 121.473C17.0319 120.407 16.0986 118.273 14.4986 116.54C12.2319 114.14 11.9652 113.073 13.1652 110.94C15.6986 106.14 14.7652 104.14 8.6319 101.473C0.365235 97.7399 0.631902 94.5399 9.96523 85.3399C13.9652 81.3399 18.2319 76.1399 19.2986 73.7399C21.1652 69.8732 21.1652 68.9399 19.2986 65.4732C16.7652 60.4065 16.7652 54.6732 19.1652 49.0732C20.2319 46.6732 22.2319 42.1399 23.4319 38.9398L25.8319 33.3399H60.6319H95.5652L100.765 28.6732L105.965 24.1398L120.499 24.0065C132.232 24.0065 135.565 24.4065 137.565 26.2732ZM131.965 129.607C131.965 132.807 140.765 151.473 145.699 158.673C148.365 162.673 152.365 167.207 154.632 168.673C156.765 170.14 158.632 172.407 158.632 173.607C158.632 175.74 156.899 176.007 140.632 176.007H122.632V152.007V128.007H127.299C130.099 128.007 131.965 128.673 131.965 129.607Z" fill="black" stroke="black" stroke-width="2" mask="url(#path-1-inside-1_122_15851)"/>
<path d="M109.299 18.1731C110.079 18.173 110.601 17.9639 110.929 17.636C111.257 17.308 111.465 16.786 111.465 16.0061C111.465 15.2261 111.257 14.7042 110.929 14.3762C110.601 14.0483 110.079 13.8401 109.299 13.8401C108.519 13.8401 107.997 14.0484 107.669 14.3762C107.341 14.7042 107.132 15.2261 107.132 16.0061C107.132 16.7863 107.341 17.308 107.669 17.636C107.997 17.964 108.519 18.1731 109.299 18.1731Z" fill="black" stroke="black"/>
<path d="M30.5455 41.915C30.9166 41.9326 31.3333 41.798 31.7447 41.3867C32.4414 40.69 32.6219 39.4656 32.3316 38.3496C32.0337 37.205 31.3469 36.5068 30.6314 36.5068C30.4174 36.507 30.1029 36.6411 29.7447 36.9844C29.4016 37.3132 29.073 37.7834 28.8297 38.3252C28.3743 39.5293 28.7531 40.7176 29.4322 41.3828C29.7704 41.714 30.1634 41.8969 30.5455 41.915Z" fill="black" stroke="black"/>
<path d="M35.4895 45.4192C35.8447 45.4944 36.4407 45.4801 37.3 45.2581V45.2571C37.9535 45.0789 38.7642 44.6496 39.5168 44.0891C40.1757 43.5985 40.7518 43.0359 41.1233 42.5071L41.2698 42.2825L41.2766 42.2717C41.7697 41.4968 42.3726 40.8196 42.9875 40.3313C43.5862 39.8559 44.2636 39.5061 44.8987 39.5061C45.2487 39.5061 45.5734 39.3802 45.8049 39.1975C46.0447 39.0083 46.1321 38.8058 46.1321 38.6731C46.1321 38.2263 45.9656 38.0208 45.7668 37.9133C45.5295 37.785 45.1391 37.7421 44.6282 37.8606C43.6757 38.0815 42.5504 38.8099 41.8674 39.8928L41.7366 40.1145C41.3607 40.922 40.6826 41.7308 39.925 42.385C39.1608 43.045 38.2664 43.5918 37.4397 43.8196H37.4407C36.583 44.0737 35.9794 44.3906 35.6057 44.6877C35.207 45.0049 35.1621 45.2185 35.1643 45.261C35.1645 45.2638 35.1613 45.273 35.1887 45.2971C35.2252 45.3292 35.3134 45.3819 35.4895 45.4192Z" fill="black" stroke="black"/>
<path d="M62.2931 68.9619C63.1761 69.7271 64.1556 69.8662 64.8781 69.6035C65.584 69.3467 66.132 68.677 66.132 67.6064C66.132 67.3994 66.2072 67.1812 66.2882 66.9941C66.3755 66.7927 66.4986 66.5642 66.6476 66.3174C66.9465 65.8221 67.3712 65.2174 67.8859 64.5508C68.9166 63.2159 70.3309 61.5999 71.8781 60.0527V60.0537L77.4738 54.3242L77.6212 54.1729H105.965C116.032 54.1729 123.177 54.2727 127.958 54.5234C130.347 54.6487 132.16 54.8128 133.458 55.0234C134.106 55.1286 134.64 55.2477 135.058 55.3848C135.463 55.5175 135.817 55.685 136.052 55.9199C136.506 56.3745 136.961 56.5409 137.357 56.5439C137.758 56.547 138.156 56.3825 138.493 56.0723C139.171 55.4486 139.561 54.2645 139.095 52.9795C138.666 51.8825 138.01 51.355 137.44 51.248C136.899 51.1468 136.251 51.3912 135.728 52.2637L135.721 52.2744L135.715 52.2842L135.664 52.3496C135.54 52.493 135.37 52.5714 135.26 52.6162C135.107 52.6785 134.918 52.7329 134.706 52.7812C134.28 52.8785 133.697 52.9668 132.976 53.0488C131.53 53.2132 129.475 53.3558 126.888 53.4727C121.711 53.7065 114.369 53.8398 105.432 53.8398H76.5519L70.5616 59.0488H70.5626C68.8859 60.5243 67.2064 61.8675 65.8585 62.8447C65.1855 63.3326 64.5885 63.7347 64.1115 64.0166C63.8736 64.1571 63.6571 64.2731 63.4708 64.3555C63.3045 64.429 63.0954 64.5068 62.8986 64.5068C62.1059 64.5068 61.5019 65.1541 61.3243 66.1602C61.1488 67.1548 61.4505 68.2875 62.2775 68.9492L62.2853 68.9551L62.2931 68.9619Z" fill="black" stroke="black"/>
<path d="M81.7982 128.807C81.7983 131.237 84.4781 132.74 86.6595 131.348L86.8685 131.204L86.8743 131.199C88.0935 130.328 88.4284 128.985 88.1019 127.863C87.777 126.747 86.7962 125.84 85.2982 125.84C85.1242 125.84 84.9511 125.789 84.8001 125.729C84.642 125.667 84.47 125.581 84.2894 125.477C83.928 125.267 83.4943 124.966 83.0032 124.592C82.0192 123.841 80.7655 122.762 79.3275 121.441C76.8088 119.128 73.7049 116.049 70.4632 112.632L69.0667 111.147L69.0648 111.146L55.5989 96.6133L55.4651 96.4688V80.1396C55.4652 75.0668 55.5982 70.7849 55.8665 67.5654C56.0006 65.9564 56.1696 64.6029 56.3743 63.5449C56.5721 62.5232 56.8156 61.7099 57.136 61.2168V61.2158C57.7248 60.2346 57.9618 59.5701 57.9485 59.001C57.9356 58.4521 57.6868 57.896 57.0579 57.1387C56.5417 56.5579 55.9981 56.0472 55.5276 55.6865C55.2919 55.5058 55.0835 55.3698 54.9134 55.2812C54.8287 55.2372 54.7601 55.2085 54.7073 55.1914C54.6587 55.1756 54.6353 55.1731 54.6321 55.1729C54.6324 55.1729 54.6087 55.1743 54.556 55.1914C54.5033 55.2085 54.4344 55.2373 54.3499 55.2812C54.1798 55.3698 53.9713 55.5059 53.7357 55.6865C53.268 56.0451 52.7286 56.5524 52.2151 57.1289C51.5799 57.8916 51.3277 58.4496 51.3148 59.001C51.3015 59.5701 51.5386 60.2347 52.1273 61.2158L52.1263 61.2168C52.637 61.9602 53.0503 63.0834 53.3353 64.2734C53.6265 65.49 53.7982 66.8296 53.7982 68.0068C53.7981 68.8475 53.7659 69.5497 53.6644 70.125C53.5627 70.7012 53.3849 71.1912 53.0667 71.5752C52.4185 72.3575 51.35 72.5068 49.9651 72.5068C48.94 72.5068 47.7034 72.1807 46.5355 71.6826C45.5099 71.2452 44.5001 70.6592 43.6937 69.9971L43.3607 69.708L43.3577 69.7051C41.4773 67.95 38.6155 67.0745 35.6732 67.123C32.9168 67.1685 30.1597 68.0247 28.1575 69.6436L27.7679 69.9766C26.3522 71.3291 25.5859 72.3512 25.0833 74.3457C24.5647 76.404 24.3322 79.4821 24.0648 84.9639C23.7971 90.4516 23.7015 93.4983 23.9114 95.1777C24.0172 96.0234 24.1903 96.4134 24.3636 96.6006C24.5087 96.7572 24.7193 96.8398 25.1653 96.8398C25.6107 96.8398 25.8384 96.7569 25.9984 96.5947C26.1812 96.4093 26.3667 96.0304 26.4876 95.2168C26.6985 93.7967 26.6773 91.3659 26.4896 87.2393L26.3987 85.3652V85.3623L25.8655 73.3623L25.8421 72.8398H30.4984C31.3719 72.8398 32.098 72.8726 32.6907 72.9736C33.2837 73.0747 33.7862 73.251 34.179 73.5674C34.9834 74.2155 35.1321 75.2884 35.1321 76.6729C35.1321 77.5523 35.2897 78.3189 35.5101 78.8477C35.6208 79.1135 35.7381 79.2974 35.8401 79.4062C35.9459 79.5191 35.9901 79.5068 35.9651 79.5068C36.0827 79.5068 36.2844 79.4171 36.4847 79.0166C36.6756 78.6347 36.7981 78.0816 36.7982 77.4736C36.7982 76.5264 36.8801 75.7104 37.1741 75.0605C37.4844 74.3749 38.0111 73.9155 38.7864 73.6504C39.5319 73.3956 40.5103 73.3186 41.7571 73.3545C43.0121 73.3906 44.5896 73.5428 46.5579 73.7764L46.5569 73.7773L53.3568 74.5762L53.7982 74.6289V97.4072L67.6614 112.062L67.6634 112.064C71.5337 116.202 75.039 120.108 77.5784 123.082C78.8474 124.568 79.8795 125.826 80.596 126.766C80.9535 127.235 81.2382 127.633 81.4359 127.943C81.5342 128.098 81.6172 128.24 81.6771 128.365C81.7263 128.468 81.7982 128.633 81.7982 128.807Z" fill="black" stroke="black"/>
<path d="M111.299 59.5066C113.751 59.5066 115.891 59.3735 117.407 59.1453C118.17 59.0305 118.75 58.8953 119.127 58.7517C119.197 58.725 119.255 58.6973 119.305 58.6736C119.255 58.6498 119.197 58.6213 119.127 58.5945C118.75 58.4509 118.17 58.3157 117.407 58.2009C115.891 57.9727 113.751 57.8396 111.299 57.8396C108.846 57.8396 106.706 57.9726 105.19 58.2009C104.427 58.3157 103.847 58.4509 103.47 58.5945C103.399 58.6214 103.341 58.6497 103.291 58.6736C103.341 58.6974 103.399 58.7248 103.47 58.7517C103.847 58.8953 104.427 59.0305 105.19 59.1453C106.706 59.3736 108.846 59.5066 111.299 59.5066Z" fill="black" stroke="black"/>
<path d="M93.1114 142.317C93.5095 142.985 94.387 143.477 95.5948 143.25C95.9055 143.177 96.1214 143.044 96.3067 142.727C96.5171 142.368 96.6954 141.757 96.8184 140.699C97.0636 138.591 97.0652 134.963 96.9317 128.687L96.5372 114.344L88.7999 106.082L88.7979 106.079L80.9307 97.5454L80.7989 97.4019V80.0503L80.9639 79.9019L87.7637 73.7681L94.5635 67.6353L94.7061 67.5063H115.432C122.502 67.5063 127.883 67.6398 131.717 67.9077C133.633 68.0416 135.173 68.2095 136.349 68.4136C137.36 68.5891 138.15 68.7992 138.682 69.064L138.894 69.1802L138.903 69.187C139.461 69.5481 139.901 69.7972 140.259 69.9517C140.618 70.1068 140.862 70.1514 141.036 70.1411C141.297 70.1257 141.544 69.9766 141.911 69.4526L142.077 69.2046C142.453 68.599 142.729 68.0863 142.89 67.6489C143.051 67.2087 143.078 66.8935 143.02 66.6587C142.965 66.4409 142.819 66.2196 142.469 65.9985C142.107 65.7703 141.552 65.5595 140.739 65.3774C139.114 65.0136 136.601 64.7936 132.9 64.6665C129.208 64.5398 124.366 64.5073 118.101 64.5073L94.1573 64.6392L86.5655 71.4458L79.1319 78.2271V97.4165L87.004 106.207L87.0069 106.208L95.0069 115.276L95.1319 115.417V126.806C95.1319 130.088 94.9647 133.108 94.6954 135.415C94.5608 136.567 94.3993 137.551 94.2178 138.305C94.1273 138.681 94.0294 139.01 93.9229 139.279C93.8212 139.535 93.6925 139.787 93.5186 139.96C92.7425 140.737 92.7157 141.653 93.1114 142.317Z" fill="black" stroke="black"/>
<path d="M69.5654 79.5066C69.6803 79.5066 69.7433 79.4786 69.7773 79.4548C69.8108 79.4313 69.8484 79.3898 69.8769 79.3083C69.9319 79.1513 69.9406 78.8733 69.8222 78.4871L69.7636 78.3152C69.6304 77.9916 69.59 77.6008 69.6035 77.2039C69.6175 76.7905 69.6913 76.3319 69.8154 75.8621C70.0321 75.0415 70.4105 74.1527 70.9326 73.3689L71.165 73.0398C71.9252 71.9382 72.7252 71.1911 73.6796 70.8093C74.6421 70.4243 75.689 70.4393 76.8798 70.7195L76.8915 70.7224L76.9023 70.7253C77.7949 70.9804 78.5136 71.03 78.9785 70.948C79.2109 70.907 79.3423 70.8393 79.4062 70.7859C79.449 70.75 79.4593 70.7224 79.4619 70.6882C79.4507 70.6702 79.4215 70.6311 79.3495 70.573C79.2137 70.4635 78.9893 70.3407 78.6767 70.2263C78.0562 69.9993 77.1823 69.8397 76.2324 69.8396C74.0356 69.8396 72.1409 70.8044 70.4326 72.8279L70.0937 73.2468C68.7989 75.0644 68.1964 76.7255 68.1816 77.8796C68.1742 78.4543 68.3119 78.8549 68.5234 79.1042C68.7246 79.3415 69.048 79.5066 69.5654 79.5066Z" fill="black" stroke="black"/>
<path d="M120.385 74.4236C123.175 74.5315 125.991 74.5356 128.171 74.4138C129.262 74.3528 130.18 74.2608 130.85 74.1384C131.187 74.077 131.444 74.0101 131.624 73.9431C131.779 73.8852 131.825 73.8451 131.827 73.8464L131.825 73.8494C132.405 73.0374 132.324 72.4319 132.014 72.0603C131.665 71.6405 130.866 71.3122 129.615 71.4373H129.614C129 71.5049 127.427 71.6057 125.394 71.7224L118.392 72.1062H118.391C115.875 72.2386 113.63 72.5032 112.022 72.7986C111.216 72.9467 110.585 73.0992 110.164 73.2419C110.157 73.2442 110.151 73.2476 110.144 73.2498C110.216 73.2762 110.297 73.3038 110.387 73.3318C110.95 73.5047 111.777 73.6675 112.802 73.8132C114.846 74.1037 117.594 74.3156 120.385 74.4236Z" fill="black" stroke="black"/>
<path d="M39.2982 140.84C40.4567 140.84 41.2364 140.268 41.5628 139.576C41.8868 138.889 41.8 138.014 41.0784 137.293C40.2292 136.444 39.641 135.649 39.4124 134.911C39.2952 134.533 39.267 134.152 39.3636 133.786C39.4607 133.418 39.6733 133.105 39.9691 132.847C40.5414 132.346 41.4539 132.023 42.6194 131.816C43.8016 131.607 45.3177 131.507 47.1653 131.507C49.0145 131.507 50.5614 131.399 51.7982 131.2C53.0428 131 53.9389 130.713 54.511 130.376C55.0785 130.041 55.25 129.71 55.2523 129.415C55.2548 129.079 55.0455 128.594 54.4114 127.96C54.151 127.699 53.9297 127.33 53.7435 126.92C53.5541 126.503 53.387 126.012 53.2484 125.483C52.9713 124.427 52.7982 123.185 52.7982 122.007C52.7982 119.254 51.6917 116.977 48.8235 114.238L44.6907 110.372L44.5237 110.216L44.5325 109.989L45.0657 94.9219V94.9199C45.333 88.3726 45.3965 84.6817 45.1683 82.6279C45.053 81.5909 44.8708 81.0646 44.6751 80.7988C44.5211 80.5896 44.3334 80.5068 43.9651 80.5068C43.7706 80.5068 43.6346 80.5312 43.5325 80.5742C43.438 80.614 43.3482 80.6794 43.2591 80.8037C43.061 81.0801 42.8775 81.629 42.762 82.71C42.562 84.5816 42.5866 87.7695 42.7747 93.1465L42.8646 95.5869V95.5889C43.1321 103.214 43.2989 107.121 43.8528 109.614C44.1253 110.84 44.4886 111.705 44.9974 112.491C45.3846 113.09 45.862 113.653 46.471 114.306L47.1253 114.992L47.1302 114.998C50.1947 118.267 51.5517 121.908 51.1946 124.801C51.015 126.256 50.3987 127.527 49.3401 128.433C48.2822 129.337 46.8256 129.84 45.0316 129.84C44.1947 129.84 43.5139 129.815 42.9798 129.736C42.4569 129.659 41.9953 129.521 41.6673 129.231C41.3092 128.915 41.1894 128.491 41.1946 128.04C41.1984 127.717 41.2652 127.352 41.3694 126.948L41.4857 126.532C41.8871 125.154 41.3156 124.091 40.4485 123.59C39.5745 123.085 38.3555 123.123 37.3851 124.094C36.866 124.613 36.6754 125.078 36.7142 125.674C36.7567 126.326 37.0759 127.178 37.7405 128.44C38.42 129.731 38.826 130.808 38.8812 131.949C38.9364 133.091 38.6381 134.239 38.0247 135.67L38.0189 135.684L37.8655 136.023C37.1403 137.689 36.9818 138.898 37.2112 139.663C37.3274 140.05 37.5435 140.329 37.8607 140.52C38.1884 140.717 38.6572 140.84 39.2982 140.84Z" fill="black" stroke="black"/>
<path d="M116.511 111.452C116.367 106.982 115.8 103.896 114.722 101.839L114.713 101.819C113.675 99.6133 112.289 98.3172 111.268 97.9626C110.771 97.7899 110.441 97.8615 110.237 98.033C110.016 98.2195 109.799 98.6417 109.799 99.4734C109.799 99.9062 110.018 100.388 110.441 100.826C110.861 101.26 111.448 101.614 112.096 101.791L112.095 101.792C112.917 102.007 113.632 102.339 114.228 102.945C114.82 103.547 115.256 104.377 115.594 105.514C116.007 106.901 116.291 108.809 116.511 111.452Z" fill="black" stroke="black"/>
<path d="M80.6142 115.992C81.0688 116.233 81.3098 116.191 81.4462 116.081C81.4458 116.076 81.446 116.071 81.4453 116.066C81.4338 115.988 81.3868 115.854 81.2724 115.668C81.0464 115.301 80.628 114.845 80.0605 114.403C79.6258 114.068 79.2668 113.774 79.0078 113.505C78.7589 113.247 78.5329 112.945 78.4863 112.587C78.4342 112.187 78.6193 111.863 78.8642 111.613C79.0409 111.432 79.2774 111.259 79.5556 111.083L79.8466 110.908C80.1182 110.738 80.357 110.605 80.5585 110.51C80.6856 110.45 80.8191 110.397 80.9482 110.362C80.6817 110.085 80.4091 109.96 80.1552 109.938C79.6445 109.894 78.9281 110.226 78.0986 111.242C77.9057 111.522 77.8634 111.994 78.0556 112.647C78.2446 113.288 78.6313 113.996 79.1113 114.618C79.5938 115.243 80.1381 115.738 80.6142 115.992ZM85.29 116.681C85.2684 116.372 85.3593 116.058 85.5175 115.783H85.5185C85.6905 115.438 85.6472 115.288 85.6347 115.263C85.631 115.256 85.6221 115.239 85.582 115.22C85.5353 115.198 85.4463 115.173 85.2988 115.173C84.7537 115.173 84.251 114.929 84.0605 114.389C83.9126 113.97 84.0011 113.491 84.2226 113.031C83.7796 113.18 83.3205 113.127 82.9081 112.92C82.3848 112.659 81.9511 112.163 81.6513 111.563L81.6406 111.542L81.6328 111.521C81.6236 111.497 81.6127 111.475 81.6035 111.452C81.5907 111.47 81.5787 111.489 81.5654 111.506L81.5439 111.535L81.5263 111.552C81.5206 111.566 81.5013 111.629 81.5361 111.797C81.5836 112.027 81.7125 112.34 81.9267 112.722C82.3515 113.479 83.0491 114.394 83.8339 115.252C84.3112 115.775 84.8118 116.266 85.29 116.681Z" fill="black" stroke="black"/>
<mask id="path-14-inside-2_122_15851" fill="white">
<path d="M116.499 148.007C116.499 158.673 116.765 162.94 116.899 157.607C117.165 152.407 117.165 143.607 116.899 138.273C116.765 133.073 116.499 137.34 116.499 148.007Z"/>
</mask>
<path d="M116.499 148.007C116.499 158.673 116.765 162.94 116.899 157.607C117.165 152.407 117.165 143.607 116.899 138.273C116.765 133.073 116.499 137.34 116.499 148.007Z" fill="black"/>
<path d="M116.899 157.607L115.899 157.582L115.899 157.568L115.9 157.555L116.899 157.607ZM116.899 138.273L115.9 138.323L115.899 138.311L115.899 138.299L116.899 138.273ZM116.499 148.007H117.499C117.499 153.338 117.565 157.051 117.647 158.758C117.668 159.192 117.689 159.466 117.706 159.601C117.71 159.633 117.712 159.643 117.711 159.637C117.71 159.634 117.707 159.618 117.7 159.594C117.695 159.577 117.678 159.517 117.641 159.443C117.629 159.42 117.505 159.152 117.186 159C116.983 158.903 116.734 158.869 116.484 158.941C116.259 159.006 116.113 159.132 116.037 159.212C115.901 159.356 115.847 159.502 115.838 159.527C115.819 159.576 115.81 159.613 115.807 159.624C115.803 159.64 115.823 159.512 115.845 159.109C115.864 158.75 115.882 158.244 115.899 157.582L116.899 157.607L117.898 157.632C117.881 158.302 117.862 158.83 117.842 159.216C117.823 159.559 117.8 159.89 117.752 160.089C117.744 160.123 117.73 160.179 117.705 160.242C117.69 160.281 117.631 160.438 117.489 160.587C117.411 160.67 117.263 160.798 117.035 160.864C116.782 160.936 116.529 160.902 116.324 160.804C115.999 160.649 115.87 160.375 115.853 160.34C115.782 160.198 115.756 160.062 115.749 160.03C115.737 159.968 115.728 159.906 115.721 159.849C115.694 159.631 115.671 159.288 115.65 158.855C115.565 157.095 115.499 153.341 115.499 148.007H116.499ZM116.899 157.607L115.9 157.555C116.165 152.39 116.165 143.624 115.9 138.323L116.899 138.273L117.897 138.223C118.166 143.589 118.166 152.423 117.897 157.658L116.899 157.607ZM116.899 138.273L115.899 138.299C115.882 137.653 115.864 137.162 115.845 136.817C115.835 136.643 115.825 136.513 115.817 136.422C115.806 136.309 115.801 136.309 115.813 136.357C115.818 136.373 115.831 136.424 115.861 136.489C115.872 136.514 115.965 136.734 116.209 136.896C116.361 136.997 116.584 137.084 116.853 137.058C117.11 137.034 117.296 136.918 117.402 136.827C117.585 136.672 117.656 136.495 117.667 136.47C117.691 136.413 117.702 136.37 117.706 136.356C117.711 136.338 117.713 136.327 117.713 136.327C117.713 136.326 117.71 136.341 117.706 136.375C117.689 136.519 117.668 136.801 117.647 137.237C117.565 138.962 117.499 142.675 117.499 148.007H116.499H115.499C115.499 142.671 115.565 138.918 115.65 137.142C115.671 136.704 115.694 136.358 115.721 136.136C115.727 136.078 115.736 136.017 115.747 135.957C115.755 135.918 115.776 135.806 115.827 135.686C115.843 135.648 115.92 135.462 116.108 135.303C116.217 135.209 116.405 135.092 116.665 135.067C116.937 135.042 117.163 135.129 117.317 135.231C117.567 135.398 117.665 135.625 117.682 135.662C117.717 135.739 117.737 135.807 117.746 135.843C117.781 135.973 117.797 136.124 117.808 136.231C117.82 136.359 117.831 136.519 117.842 136.705C117.862 137.08 117.881 137.593 117.898 138.248L116.899 138.273Z" fill="black" mask="url(#path-14-inside-2_122_15851)"/>
<path d="M93.999 150.007C93.999 149.905 93.9665 149.727 93.874 149.459C93.7842 149.199 93.648 148.885 93.4648 148.521C93.0985 147.795 92.5607 146.901 91.8848 145.903C90.7026 144.159 89.1127 142.119 87.3164 140.131L86.5342 139.282L86.5254 139.272L79.292 131.153L76.7334 133.944L76.7305 133.948L76.3721 134.337C75.564 135.227 74.9512 136.003 74.5303 136.628C74.2899 136.984 74.1173 137.283 74.0068 137.52C74.3883 137.3 74.9396 136.888 75.665 136.236L76.0244 135.907L79.0859 132.979L79.4473 132.633L79.793 132.994L85.918 139.387L85.9189 139.386C87.6667 141.134 89.3796 143.082 90.7578 144.83C92.1251 146.564 93.1965 148.143 93.625 149.143L93.6328 149.162C93.7686 149.519 93.8896 149.828 93.998 150.093C93.9981 150.065 93.999 150.036 93.999 150.007Z" fill="black" stroke="black"/>
<path d="M65.0291 145.336C64.3079 144.352 63.3208 143.134 62.2654 141.946C60.6027 140.15 59.464 139.155 58.1873 138.617C57.3101 138.247 56.3392 138.085 55.0388 138.061C56.3138 138.306 57.4112 138.674 58.4382 139.234C59.98 140.075 61.3244 141.325 62.8708 143.139C63.7187 144.087 64.5059 144.898 65.1541 145.51C65.113 145.454 65.0722 145.395 65.0291 145.336Z" fill="black" stroke="black"/>
<path d="M81.9824 146.575C82.8941 146.829 84.0499 146.682 84.6787 146.053C85.1381 145.593 85.3358 145.143 85.3486 144.644C85.3604 144.185 85.2174 143.636 84.8809 142.947L84.7246 142.644C84.3367 141.933 83.9741 141.424 83.6299 141.091C83.2889 140.761 82.9922 140.626 82.7256 140.604C82.4579 140.583 82.137 140.669 81.7354 140.944C81.4317 141.152 81.0992 141.457 80.7334 141.869L80.3555 142.318L80.3525 142.323L80.1484 142.578C79.9602 142.82 79.8181 143.024 79.7178 143.193C79.6377 143.328 79.5951 143.425 79.5723 143.489C79.6349 143.5 79.7202 143.507 79.832 143.507C80.3707 143.507 80.8928 143.659 81.1953 144.052C81.5269 144.483 81.4618 145.018 81.1943 145.464L81.1768 145.491L81.1094 145.6C81.056 145.701 81.0399 145.78 81.0381 145.837C81.0358 145.91 81.0567 145.985 81.1133 146.067C81.2386 146.25 81.531 146.449 81.9824 146.575Z" fill="black" stroke="black"/>
<path d="M69.4319 156.84C70.4202 156.84 70.8678 156.664 71.0775 156.407C71.2925 156.143 71.4044 155.615 71.2064 154.493L71.2044 154.483L71.2034 154.474C71.0162 153.101 70.432 152.147 69.7943 151.699C69.4799 151.479 69.1596 151.383 68.8568 151.399C68.5601 151.415 68.2381 151.54 67.9163 151.83C66.9956 152.753 66.7943 154.019 67.1253 155.055C67.4556 156.088 68.2897 156.84 69.4319 156.84Z" fill="black" stroke="black"/>
<path d="M92.7657 159.507C94.5509 159.507 95.9355 159.373 96.7921 159.155C97.1722 159.058 97.3929 158.955 97.503 158.88C97.4643 158.829 97.3456 158.717 97.0469 158.584C96.727 158.441 96.2855 158.309 95.7462 158.196C94.6703 157.971 93.2724 157.84 91.8321 157.84C90.4579 157.84 89.2 157.971 88.3008 158.192C87.8476 158.303 87.516 158.431 87.3096 158.555C87.2607 158.585 87.2249 158.611 87.1983 158.633C87.2352 158.656 87.2828 158.684 87.3438 158.715C87.6069 158.845 88.0169 158.981 88.5577 159.102C89.6318 159.343 91.1282 159.507 92.7657 159.507Z" fill="black" stroke="black"/>
<path d="M72.0621 164.082C72.7726 164.523 73.9878 164.477 75.2115 163.253L75.2193 163.245L75.2271 163.238C75.6146 162.883 75.9025 162.578 76.1011 162.325C76.2709 162.109 76.3564 161.952 76.3951 161.852C76.3567 161.846 76.3037 161.84 76.232 161.84C75.6542 161.84 75.1359 161.63 74.8492 161.2C74.5616 160.769 74.5914 160.24 74.8511 159.784V159.783C74.9227 159.64 74.933 159.548 74.9293 159.499C74.9262 159.46 74.9135 159.429 74.8785 159.394C74.7862 159.301 74.5194 159.173 73.9654 159.173C73.5674 159.173 73.0675 159.353 72.5904 159.696C72.1215 160.033 71.7201 160.496 71.4937 160.999C70.8929 162.574 71.3607 163.647 72.0621 164.082Z" fill="black" stroke="black"/>
<path d="M92.6315 164.84C93.858 164.84 95.0495 164.678 95.9733 164.439C96.4358 164.32 96.8186 164.184 97.1003 164.047C97.3177 163.941 97.4361 163.852 97.4938 163.797C97.379 163.721 97.1558 163.62 96.777 163.525C95.9031 163.307 94.4845 163.173 92.6315 163.173C90.7786 163.173 89.3598 163.307 88.486 163.525C88.1063 163.62 87.8827 163.721 87.7682 163.797C87.8256 163.852 87.9452 163.94 88.1638 164.047C88.4454 164.184 88.8283 164.32 89.2907 164.439C90.2144 164.678 91.4053 164.84 92.6315 164.84Z" fill="black" stroke="black"/>
<path d="M92.6315 172.84C93.858 172.84 95.0495 172.678 95.9733 172.439C96.4358 172.32 96.8186 172.184 97.1003 172.047C97.3177 171.941 97.4361 171.852 97.4938 171.797C97.379 171.721 97.1558 171.62 96.777 171.525C95.9031 171.307 94.4845 171.173 92.6315 171.173C90.7786 171.173 89.3598 171.307 88.486 171.525C88.1063 171.62 87.8827 171.721 87.7682 171.797C87.8256 171.852 87.9452 171.94 88.1638 172.047C88.4454 172.184 88.8283 172.32 89.2907 172.439C90.2144 172.678 91.4053 172.84 92.6315 172.84Z" fill="black" stroke="black"/>
<path d="M130.128 163.507C130.163 163.406 130.206 163.261 130.247 163.063C130.353 162.551 130.451 161.79 130.534 160.83C130.699 158.915 130.798 156.263 130.798 153.34C130.798 148.924 130.73 146.308 130.457 144.796C130.319 144.036 130.143 143.637 129.963 143.428C129.814 143.255 129.629 143.174 129.298 143.174C128.967 143.174 128.769 143.256 128.609 143.435C128.421 143.646 128.234 144.045 128.089 144.801C127.837 146.119 127.752 148.284 127.78 151.76L127.798 153.333V153.34C127.798 156.26 127.932 158.909 128.129 160.822C128.229 161.781 128.342 162.54 128.461 163.052C128.508 163.257 128.555 163.405 128.593 163.507H130.128Z" fill="black" stroke="black"/>
</svg>
